/* XPM */
static char *collectible[] = {
/* columns rows colors chars-per-pixel */
"32 32 93 2 ",
"   c #6B2705",
".  c #6C2704",
"X  c #6F2805",
"o  c #742E04",
"O  c #762C07",
"+  c #773004",
"@  c #7B3304",
"#  c #7E3605",
"$  c #745953",
"%  c #823905",
"&  c #863D05",
"*  c #893F06",
"=  c #843408",
"-  c #8A3809",
";  c #963F09",
":  c #8D4106",
">  c #934605",
",  c #974906",
"<  c #9B4D06",
"1  c #9F4F06",
"2  c #99410A",
"3  c #A2460B",
"4  c #A94A0B",
"5  c #A25107",
"6  c #A35407",
"7  c #A75607",
"8  c #AA5807",
"9  c #AE5B08",
"0  c #B6530C",
"q  c #B7540D",
"w  c #B9570C",
"e  c #BC5C0C",
"r  c #B46108",
"t  c #B96508",
"y  c #BC6708",
"u  c #BF620C",
"i  c #BF6A08",
"p  c #BA763F",
"a  c #C0630C",
"s  c #C2670C",
"d  c #C26C08",
"f  c #C66F0C",
"g  c #CA730B",
"h  c #CD760B",
"j  c #C8720C",
"k  c #CA760C",
"l  c #CC770C",
"z  c #CC780C",
"x  c #CC790D",
"c  c #CC7A0D",
"v  c #815F53",
"b  c #916654",
"n  c #976D5B",
"m  c #9C7563",
"M  c #A48070",
"N  c #A88575",
"B  c #7F989A",
"V  c #80999B",
"C  c #819B9D",
"Z  c #839D9F",
"A  c #849D9F",
"S  c #A7948C",
"D  c #B89B8E",
"F  c #AE9C94",
"G  c #849EA0",
"H  c #859FA1",
"J  c #86A0A2",
"K  c #87A1A3",
"L  c #87A2A4",
"P  c #88A3A5",
"I  c #89A4A6",
"U  c #8BA6A8",
"Y  c #8BA7A9",
"T  c #8CA8AA",
"R  c #8DA9AB",
"E  c #8EABAD",
"W  c #8FACAE",
"Q  c #90ACAE",
"!  c #90ADAF",
"~  c #91AEB0",
"^  c #92AFB1",
"/  c #C4ABA0",
"(  c #C9B2A7",
")  c #D2BFB5",
"_  c #E3D6CE",
"`  c #E7DAD4",
"'  c #EBE1DB",
"]  c #F0E6E0",
"[  c #F2EBE5",
"{  c #F7F0EB",
"}  c #FAF6F1",
"|  c #FDF9F5",
" . c #FFFCF8",
/* pixels */
"I I P I I I I I I I I I I I I I I I I A B B B B L I I I I I I I ",
"I P H C J I I I I U I I I I I I I I P C B S F B I I I I I I I I ",
"I J B B C I I I R ! ! P I P I I I I I H D } } ) _ / I I I I I I ",
"I I C V A P I Y ~ ~ ! ~ Y P I I I I I I (  . . . .[ I I I I I I ",
"I I P P I I Y ! ^ ^ ^ ^ ! I I I I I I I I '  . . .` I I I I I I ",
"I I P I I I I ! ^ ~ ^ ^ Y I I I I I I I K _ | _ ) N I I I I I I ",
"I I I I I I I U ! ~ ~ R I I I I I I I I P ' | M I I I I I I I I ",
"I I I I I I I I I ! E I I I I I I I I I b { ] P I I I I I I I I ",
"I I I I I I I I I I I I I I I I I I I @ 5 n m P I I I I I I I I ",
"I I I I I J L I I I I I I I I I I I I 7 h l g < I I I I I I I I ",
"I I I I I Z B C H J I I I I I I I I I t l x l 1 J H P I I I I I ",
"I I I I J B B B B B J I I I I I I I I f h x l < B B Z I I I I I ",
"I I I I J V B B B B I I I I I I I I & k x x l > B B Z I I I I I ",
"I I I I Z B B B B Z I I I I I P I I 9 z x x g & J Z L I I I I I ",
"I I I I Z V V V B H L I I L I H J < k z x x f # I I I I I I I I ",
"I I I I P I H H C J I I L G B C 6 z c z x x s o I I I I I I I I ",
"I I I I I I I I I I I I I V v p z c c c c z u X Y I I I I I I I ",
"Z I I I I I I I I I I I I 6 c c c c c c c z u   I I I I I I J G ",
"B J I I I I I I I I J : i z c c c c c c z c u   I I I I I I G B ",
"B J I I I I I I I + 9 z z z c c c c c c c z j o I I I I I I J B ",
"I I I I I I I I # y z z c c c c c c c c c c k : I I I I I I L J ",
"I I I I I I I I i z c c c c c c c c c c f c z < E Y I I I I I I ",
"I I I I I I I , z c c c c c c c c c c c w f z 7 ^ E I I I I I I ",
"I I I I I I I r z c c c c c c c c c c c z s f r ^ W I I I I I I ",
"I I I I I I I i z x c c c c c c c c c c f 0 0 t ^ W I L L I I I ",
"I I I I I I I f z x c c c c c c c c c c j w e d Y Y I J B B J I ",
"I I I I I I I i z x x x c c c c c c c c x x x r I I I G B B J I ",
"I I I I I I I 8 x h x x c c c c c c x x x x j 2 I I I J G G I I ",
"I R E E I I I % f x l x x x x x x f s z z f 0 = I I I I I I I I ",
"I ^ ^ ^ I I I I : t k h x j j a 0 4 2 0 e 4 = I I I I I I I I I ",
"I E ^ E I I I I Y J > 7 9 5 ; - o I I   $ B B B J I I I I I I I ",
"I I I I I I I I L Y L I I P I I I I I Z B B B B J I I I I I I I "
};
