/* XPM */
static char *exit[] = {
/* columns rows colors chars-per-pixel */
"32 32 81 1 ",
"  c #25A85D",
". c #25AA5E",
"X c #26AC5F",
"o c #2FA962",
"O c #2FAA63",
"+ c #2BAD62",
"@ c #35A966",
"# c #3AA86A",
"$ c #3AAC6B",
"% c #3EAA6C",
"& c #27B061",
"* c #28B363",
"= c #29B565",
"- c #28B664",
"; c #29BA67",
": c #2ABB68",
"> c #2ABD69",
", c #2EBD6B",
"< c #3EBE75",
"1 c #41A86E",
"2 c #40A96E",
"3 c #43A770",
"4 c #4EA777",
"5 c #42AB70",
"6 c #56A77C",
"7 c #50AA79",
"8 c #53A97B",
"9 c #56AE7F",
"0 c #2BC26B",
"q c #2BC36C",
"w c #2CC46C",
"e c #2CC76E",
"r c #2DC86E",
"t c #2DC86F",
"y c #2ECB71",
"u c #2ECC71",
"i c #35C571",
"p c #36CB74",
"a c #7F989A",
"s c #5EA682",
"d c #59AE82",
"f c #66A688",
"g c #74A695",
"h c #77A597",
"j c #7DA49C",
"k c #7CA59C",
"l c #80999B",
"z c #819B9D",
"x c #80A49F",
"c c #859FA1",
"v c #86A0A2",
"b c #82A4A0",
"n c #87A2A4",
"m c #87A4A4",
"M c #87A6A4",
"N c #88A3A5",
"B c #88A4A5",
"V c #89A4A6",
"C c #89A5A7",
"Z c #8AA5A7",
"A c #8BA6A8",
"S c #8CA7A9",
"D c #8CA8AA",
"F c #8CA9AB",
"G c #8EAAAC",
"H c #8FACAE",
"J c #90ACAE",
"K c #90ADAF",
"L c #91AEB0",
"P c #93B0B2",
"I c #95B3B5",
"U c #97B6B7",
"Y c #98B6B8",
"T c #98B7B8",
"R c #99B7B9",
"E c #9BB9BB",
"W c #9BBABC",
"Q c #9CBABC",
"! c #9CBCBE",
"~ c #9DBCBE",
"^ c #9FBFC1",
/* pixels */
"VVNVVVVVVGUEW!^^^^^ERGclnANNAANN",
"VNczvVVKR!ULKHGFFSGGKRQRGAANNNNA",
"VvaazSREPAVVVVVVVVVVNASLWRANNNNA",
"VVzlVQIVVVVVVVVVVVVVNANNAIWGAANN",
"VVnFQGVVVVVVmmnnmnnmmAANVVLQGnNA",
"VVFEGVVVVNhs5#@oOO54fkNNVVNHWFNN",
"VVUGVVVVx6+;>qwywww>-O6bVVVVFYAN",
"VPLVVVVk%;yuuyuuuuuuyy:1kVVVVLPN",
"VUVNVVk$wuuuuuuuuuuuuuuw2bVVVVIV",
"KFVVVM7wuuuuuuuyruuwuuuuw8mVVVGH",
"LVVVVgwuuuur;&&&&&;:ywuuy,kmVVVK",
"KVVVVduuuuwX    ..  &wuuuy9mVVVK",
"FNVVV2uuuw           .wuuu<mVVVF",
"VVVVVpuuu-            -uurimVVVA",
"AVVVMpuuy.            &uuupmVVVV",
"VVVVMpuur&            &ruupVVVVV",
"VVVVMpuuw.             rpupMmmAm",
"VVVVMpuuy.            .ruupMmAnA",
"VVVVMpuup.            &uuupMAnAn",
"VVVmMpuurX           ..wuupmnAnA",
"VVVVMpuurX.           .yuupMAnAn",
"VVVVMpuuuX            XuuupMnAnA",
"VVVVMpuur.            .ruupMAnAn",
"VVVVMpuur.            .yuupmnAnA",
"VVVVMpuuy..           XruupMAnAn",
"VVVVMpuuw.           .XuuupMmAnA",
"VVVVMpuur&..   .  ..  XruupMAnAn",
"VVVVMpuuw&.&XX X......XuuupMnAnA",
"VVVVMpuuuuruuruuwruruyuuuupMAnAn",
"VVVVMpuuuuuuuuuuuuuuuuuuuupMnAnA",
"VVVVMpuuuuuuuuuuuuuuuuuuuupMAnAn",
"VVVVMpuuuuuuuuuuuuuuuuuuuupmnAnA"
};
