/* XPM */
static char *floor[] = {
/* columns rows colors chars-per-pixel */
"32 32 38 1 ",
"  c #7F989A",
". c #7F999B",
"X c #80999B",
"o c #819A9C",
"O c #819B9D",
"+ c #829B9D",
"@ c #829C9E",
"# c #839C9E",
"$ c #839D9F",
"% c #849D9F",
"& c #849EA0",
"* c #849FA1",
"= c #859FA1",
"- c #85A0A1",
"; c #85A0A2",
": c #86A0A2",
"> c #86A1A3",
", c #87A1A3",
"< c #87A2A4",
"1 c #88A2A4",
"2 c #88A3A5",
"3 c #89A3A5",
"4 c #89A4A6",
"5 c #89A5A7",
"6 c #8AA5A7",
"7 c #8AA6A8",
"8 c #8BA6A8",
"9 c #8BA7A9",
"0 c #8CA8AA",
"q c #8DA9AB",
"w c #8EAAAC",
"e c #8EABAD",
"r c #8FACAE",
"t c #90ACAE",
"y c #90ADAF",
"u c #91ADAF",
"i c #91AEB0",
"p c #92AFB1",
/* pixels */
"4424444444444444444%    <4444444",
"42=O:44429444444442O    24444444",
"4:  O444qyt24444444=%$OO44444444",
"44OX%249iiiy82444444444444444444",
"44<2448ippppy4444444444444444444",
"4444444ypppp94444444444444444444",
"44444448yiiq44444444444444444444",
"444444444ye444444444444444444444",
"44444444444444444444444444444444",
"44444<<4444444444444444444444444",
"44444O O&:44444444444444:%444444",
"4444<     :444444444444<X $44444",
"4444:     2444444444444:  $44444",
"4444$    $44444444444444:$<44444",
"4444$X   =24422=:444444444444444",
"444444:=O:442$XXO444444444444444",
"4444444444444    <44444444444444",
"$244444444444$   &444444444444:$",
" :44444444444: O:<444444444444& ",
" <444444444444<444444444444442- ",
"4444444444444444444444444444442<",
"44444444444444444444448qr9444444",
"444444444444444444444qpppe444444",
"444444444: $::24444448pppr444444",
"444444444=    $2444444iipi8<<444",
"444444444O    :4444444ee842: .:4",
"444444444O    :444444444444&  :4",
"44444444<     4444444444444:O$44",
"4eee444442::$%444444444444444444",
"4iii4444444424444422:<<444444444",
"4yir444444444444444=   .:4444444",
"4484444444444444442$    :4444444"
};
