/* XPM */
static char *character[] = {
/* columns rows colors chars-per-pixel */
"32 32 23 1 ",
"  c #262B44",
". c #3A4466",
"X c #5A6988",
"o c #7F989A",
"O c #80999B",
"+ c #819B9D",
"@ c #839D9F",
"# c #849D9F",
"$ c #859FA1",
"% c #8B9BB4",
"& c #86A0A2",
"* c #87A1A3",
"= c #87A2A4",
"- c #88A3A5",
"; c #89A4A6",
": c #8BA6A8",
"> c #8BA7A9",
", c #8EABAD",
"< c #90ACAE",
"1 c #90ADAF",
"2 c #91AEB0",
"3 c #92AFB1",
"4 c #FBF4EB",
/* pixels */
";;-;;;;;;;;;;;; ...@oooo=;;;;;;;",
";-$+&;;;->;;;;;.XXX.oOoo-;;;;;;;",
";&oo+;;;>3,;;;...... .++;;;;;;;;",
";;+O#-;>333,; ..  .  . ;;;;;;;;;",
";;--;;>1333.XXXXXXXXXXXXX%%%%%X;",
";;-;;;;133.XXXX%44%XXXXXX%%%%%%.",
";;;;;;;:,3XXXX%4444%XXXXXXXXXX%.",
";;;;;;;;;%%XXX444444%XXXXXXXXX%.",
";;;;;;;;%4%XX%4444%4%XXXXXXXXX%.",
";;;;;&=;;%%XX%4444%4%XXXXXXXXX%.",
";.X;;@o+&%XXX%444444%XXXXXXXXXX.",
".X%X&oooX4%XX%444444%XXXXXXXXXX.",
".X4%&OooX4%XXX%44444XXXXXXXXXXX.",
".X4%@oooo%XXXXX4444%XXXXXXXXXXX.",
".X%X@OOOo%%XXXXX%%%XXXXXXXXXXXX.",
".X%X-;$$%4%X%%%%XXXXXXXXXXXXXXX.",
".X44;;;;;%%X%%%%%XXXXXXXXXXXXXX.",
".X%%;;;;;%X%%%%%%%%%%%%%%%%%%%X.",
".XX%%;;;%4%%%%%%%%%%%%%%%%%%%%%.",
".XX4%.;;%4%%%%%%%%%%%%%%%%%%%%%.",
".%X%%4X .XX%%%%%%%%%%%%%%%%%%%%.",
".XXX%4%.XXX%%%%%%%%%%%%%%%%%%%%.",
";XXXX%XXX%%XXXXXXXXXXXXXXXXXX..;",
";X%XXX..XX%X%%%%%%%%%%%X..... ;;",
";.XXXXX..XXX%%%%%%%%%%%X.    -;;",
";;XXXXXX..X%%%%%%%%%%%%%X.-$oO&;",
";;.X%%%XXXX%%%%%%%%%%%%%%X;$oo&;",
";;;X%%%%X%X%%%%%%%%%%%%XXX &+@;;",
"-,1,.X%XXXXX%%%%%%%%%%XXX%X;;;;;",
";311;;XXXXXXXXXXXXXXXXXXX%X;;;;;",
";131;;.XXXXX.;;;;;-$o.XXXXXX;;;;",
";;;;;; ..... ;;;;;-@O ..... ;;;;"
};
