/* XPM */
static char *Rock1[] = {
/* columns rows colors chars-per-pixel */
"32 32 18 1 ",
"  c #131313",
". c gray8",
"X c #151515",
"o c gray13",
"O c #222222",
"+ c #232323",
"@ c gray19",
"# c #303031",
"$ c #313131",
"% c #313232",
"& c #323232",
"* c #585656",
"= c #585657",
"- c #595757",
"; c #807B7A",
": c #817C7B",
"> c #9E9998",
", c #9F9A99",
/* pixels */
";%+....%::;;;;;;;%.-:;;;-O.XXO&:",
"++.---..&%;;;;;;%+.+,-;-OX&&&XOO",
" ..-,,-..+&:;;;;@+..O+OO.&,,&...",
"-- --::--.O&%%%%O.--.XXX&:;;&.--",
",,-.-->:&+.+OOOO.&,,&X@@.OOO..-,",
">-,- %&&&O.......O:+.%,,@XXXX-,:",
";:%..+++O..-----..O.%,>>,@..-,;;",
";+.--.....-,,,,,-...@,;;;,@.%;;;",
";+->,--..@,;;;;;,-.%,;;;;;,%O&&;",
"+.+;;>,-.%;;;;;;;&.&;;;;;;;&XOO%",
"..+%;;;%.%%;;;;;%OX&;;;;;;%O...O",
"-- +%@%@.+%@@%@%OOXO&;;;;&O.---.",
">,-..+++..OOOOOOOX.XO&:;;O.-,,,-",
";;,-- ..---...-----.O&&;&OX&;;-,",
";;;,>-.-,,,-.-,,,,,-XO&&&OX&%;,;",
";;;;-%.-;;,-.-,;;;,-XOOOOO.O&&&;",
":::&&O.-;;;>-.--;;;,-..---..OOO&",
"&&&&&OX%@;;,-.@;;;;;@.-,>>-..XOO",
"OO++OXO+OO;;>@X&;;@%.-,;;-@.---X",
"-XXXXX--X.&;;@XX%%O.-,;;;@X->,,-",
",--OX->,-.+@;:OX&O.-,;;;@.-,;;;>",
"-,,-.->-,-.O&&O...&,;;;&X-,;;;;;",
";:,@X&:;&O.XOOXX..XO%;&OX&;;;;;;",
";:&X.O&@O..XXXX---.O&@&OX.%@;;;;",
"&&OOX.O+.----.-,>--.OOO.....o&&@",
"OOO--X.X->>>>*O@;;&OX.X---...OOO",
"XX-,,-.->>;;>,-@%%o.---,,>-..--X",
"X-,;;@.->;;;->-OOO.-,,,;;>-.-,,&",
"X+&:%OX->;;;;;,-X.-,:;;;;>>-O&o.",
"-XO&OX-,;;;;;;>-XX-;::;;;-;-.O.-",
",-.OOX@-;;;;;;;,@.-;;:::::-...-,",
";;-XXX&>;;;;;;;;&..-,-:::-...--;"
};
